<svg width="20" height="20" viewBox="0 0 20 20" fill="none" xmlns="http://www.w3.org/2000/svg">
<path d="M9.16663 10.8334H4.99996C4.76385 10.8334 4.56593 10.7536 4.40621 10.5938C4.24649 10.4341 4.16663 10.2362 4.16663 10.0001C4.16663 9.76397 4.24649 9.56605 4.40621 9.40633C4.56593 9.24661 4.76385 9.16675 4.99996 9.16675H9.16663V5.00008C9.16663 4.76397 9.24649 4.56605 9.40621 4.40633C9.56593 4.24661 9.76385 4.16675 9.99996 4.16675C10.2361 4.16675 10.434 4.24661 10.5937 4.40633C10.7534 4.56605 10.8333 4.76397 10.8333 5.00008V9.16675H15C15.2361 9.16675 15.434 9.24661 15.5937 9.40633C15.7534 9.56605 15.8333 9.76397 15.8333 10.0001C15.8333 10.2362 15.7534 10.4341 15.5937 10.5938C15.434 10.7536 15.2361 10.8334 15 10.8334H10.8333V15.0001C10.8333 15.2362 10.7534 15.4341 10.5937 15.5938C10.434 15.7536 10.2361 15.8334 9.99996 15.8334C9.76385 15.8334 9.56593 15.7536 9.40621 15.5938C9.24649 15.4341 9.16663 15.2362 9.16663 15.0001V10.8334Z" fill="#D0EA59"/>
</svg>
